<svg width="240" height="62" viewBox="0 0 259 62" fill="none" xmlns="http://www.w3.org/2000/svg">
<path d="M81.3294 33.5642C81.35 32.9362 81.2387 32.3108 81.0027 31.7287H80.9701C80.088 29.6309 77.6703 29.0081 75.122 28.7131C74.3668 28.6431 73.6217 28.4892 72.9004 28.2542H73.0964C72.247 27.9592 71.6916 27.5331 71.6916 26.7464C71.7243 25.6319 72.7371 24.7469 74.8933 24.7469C76.5595 24.7469 78.0297 25.5992 78.5524 26.4842L80.872 25.3042C80.872 25.2714 80.8394 25.2714 80.8394 25.2386H80.872C79.6959 22.8458 77.2129 22.1575 74.828 22.1575C71.9856 22.1902 68.8493 23.4686 68.8493 26.6808V27.1725C69.0779 30.2864 71.855 31.0731 74.8933 31.4337C76.9189 31.6631 78.4544 32.2531 78.4544 33.6953C78.4217 35.3343 76.7229 35.9898 74.8933 35.9898C73.0638 35.9898 71.2342 35.2359 70.5481 33.5315L68.1305 34.777C68.1305 34.8098 68.1632 34.8098 68.1632 34.8426H68.1305C69.274 37.6615 71.6916 38.6448 74.8606 38.6448C78.2911 38.6448 81.3294 37.1698 81.3294 33.7281V33.5642Z" fill="black"></path>
<path d="M112.236 35.2034H109.351V38.0878H120.884V35.2034H112.236Z" fill="black"></path>
<path d="M115.013 31.7189H120.6V28.9984H112.236V28.9656H109.351V31.7189H115.013Z" fill="black"></path>
<path d="M109.351 25.4354H120.884V22.6165H109.351V25.4354Z" fill="black"></path>
<path d="M94.2669 22.5837H89.9218V25.3699H94.2669C97.9587 25.3699 97.9914 30.8438 94.2669 30.8438H89.9218V38.0878H93.0157V33.5316H94.2898C101.837 33.5316 101.814 22.5837 94.2669 22.5837Z" fill="black"></path>
<path d="M136.468 35.695C132.645 35.695 131.175 33.0072 131.142 30.4505C131.11 27.8938 132.743 25.0749 136.468 25.0749C137.155 25.0631 137.837 25.1873 138.476 25.4404C139.115 25.6935 139.698 26.0705 140.192 26.5499L142.12 24.6816C141.38 23.9324 140.5 23.3381 139.53 22.933C138.559 22.5279 137.519 22.32 136.468 22.3215C130.881 22.3215 128.267 26.4188 128.3 30.4833C128.333 34.5478 130.75 38.4483 136.468 38.4483C137.546 38.4781 138.619 38.2904 139.624 37.8963C140.628 37.5021 141.544 36.9096 142.316 36.1539L140.323 34.1544C139.277 35.1361 137.9 35.6862 136.468 35.695Z" fill="black"></path>
<path d="M149.186 25.2715H154.087V38.0877H156.995V25.2715H161.895V22.6165H149.209V25.2715H149.186Z" fill="black"></path>
<path d="M172.84 35.2034H169.965V38.0878H181.498V35.2034H172.84Z" fill="black"></path>
<path d="M175.78 31.7189H181.171V28.9984H172.807V28.9656H169.965V31.7189H175.78Z" fill="black"></path>
<path d="M169.965 25.4354H181.498V22.6165H169.965V25.4354Z" fill="black"></path>
<path d="M217.076 22.2886C211.751 22.2886 209.137 26.3858 209.137 30.4503C209.137 34.5148 211.653 38.4154 217.076 38.4154C222.499 38.4154 224.95 34.4165 224.982 30.4175C225.015 26.4186 222.391 22.2886 217.076 22.2886ZM217.076 35.7604C213.449 35.7604 212.077 33.0398 212.012 30.4831C211.947 27.8608 213.449 24.9436 217.076 24.9436C220.702 24.9436 222.173 27.8608 222.107 30.4831C222.065 33.03 220.702 35.7604 217.076 35.7604Z" fill="#09B36B"></path>
<path d="M235.698 22.5837H231.353V25.3699H235.698C239.39 25.3699 239.423 30.8438 235.698 30.8438H231.32V38.0878H234.13V33.5316H235.665C243.245 33.5316 243.212 22.5837 235.698 22.5837Z" fill="#09B36B"></path>
<path d="M258.404 33.5643C258.425 32.9362 258.314 32.3108 258.078 31.7287H258.045C257.163 29.6309 254.745 29.0082 252.197 28.7132C251.442 28.6432 250.697 28.4893 249.975 28.2543H250.171C249.989 28.1978 249.814 28.1208 249.649 28.0248C249.388 27.9195 249.165 27.7384 249.007 27.5047C248.85 27.2711 248.766 26.9956 248.766 26.7137C248.799 25.5992 249.812 24.7142 251.968 24.7142C253.634 24.7142 255.105 25.5665 255.627 26.4515L257.947 25.2715C257.947 25.2387 257.914 25.2387 257.914 25.2059H257.947C256.771 22.8131 254.288 22.1248 251.903 22.1248C249.06 22.1575 245.924 23.4359 245.924 26.6481V27.13C246.153 30.2439 248.93 31.0306 251.968 31.3911C253.994 31.6206 255.497 32.2106 255.529 33.62C255.497 35.2589 253.798 35.9145 251.968 35.9145C250.139 35.9145 248.309 35.1606 247.623 33.4561L245.205 34.7017C245.205 34.7345 245.238 34.7345 245.238 34.7673H245.205C246.349 37.5862 248.766 38.5695 251.935 38.5695C255.366 38.5695 258.404 37.0945 258.404 33.6528V33.5545V33.5643Z" fill="#09B36B"></path>
<path d="M200.502 27.7298C200.502 25.042 198.575 22.6165 194.948 22.6165H190.505V25.337H194.948C196.778 25.337 197.594 26.5826 197.594 27.8282C197.594 29.0737 196.81 30.3193 194.948 30.3193H190.538V38.0877H193.347V32.9088L195.046 32.7449L199.718 38.0877H203.181V37.891L198.052 32.1221C199.891 31.2043 200.502 29.4671 200.502 27.7298Z" fill="black"></path>
<path d="M19.484 25.4028V27.5661L21.0195 29.4345L25.9855 29.6639V25.4028L22.6857 23.5344L19.484 25.4028Z" fill="#09B36B"></path>
<path d="M30.5593 25.4028V29.7295L35.4272 29.4345L37.0935 27.5661V25.4028L33.7937 23.5344L30.5593 25.4028Z" fill="#09B36B"></path>
<path d="M50.5864 43.3979L46.6006 41.1034L46.6333 41.0706V20.0271L40.9812 16.8476L36.7341 14.4548L28.3704 9.75773L20.1374 14.445L15.8902 16.8706L14.8447 17.4606L10.8916 15.1333L12.1984 14.3794L18.4058 10.8066L28.2724 5.1688L38.3349 10.8394L44.5423 14.3467L50.5537 17.7228L55.0296 15.1333V15.1006L46.7313 10.4461L40.5238 6.93881L28.2724 0.0554199L16.2169 6.97159L10.0095 10.5444L2.03784 15.1006V15.1989L10.4669 20.05V40.9297L28.5664 51.3859L42.1901 43.6503L46.1105 45.9775L28.5991 55.9093L6.57906 43.1914L2.10318 45.7808L28.5664 61.0554L50.5537 48.567L55.095 45.9775V45.9447L50.5864 43.388V43.3979ZM14.9101 38.35V22.6166L18.1118 20.781L22.359 18.3554L28.3704 14.9137L34.5451 18.3882L38.7923 20.781L42.1901 22.6821V38.5467L28.5664 46.2823L14.9101 38.35Z" fill="black"></path>
<path d="M51.5665 22.4854V38.7433L56.3038 41.1689V19.7976L51.5665 22.4854Z" fill="black"></path>
<path d="M5.17421 22.4854L0.404297 19.7976V41.1689L5.17421 38.7433V22.4854Z" fill="black"></path>
</svg>
