<?xml version="1.0" encoding="UTF-8" standalone="no"?>
<svg
   contentStyleType="text/css"
   height="682px"
   preserveAspectRatio="none"
   style="width:1192px;height:682px;background:#FFFFFF;"
   version="1.1"
   viewBox="0 0 1192 682"
   width="1192px"
   zoomAndPan="magnify"
   id="svg248"
   sodipodi:docname="deployment.svg"
   inkscape:version="1.2.2 (b0a8486541, 2022-12-01)"
   xmlns:inkscape="http://www.inkscape.org/namespaces/inkscape"
   xmlns:sodipodi="http://sodipodi.sourceforge.net/DTD/sodipodi-0.dtd"
   xmlns="http://www.w3.org/2000/svg"
   xmlns:svg="http://www.w3.org/2000/svg">
  <sodipodi:namedview
     id="namedview250"
     pagecolor="#ffffff"
     bordercolor="#000000"
     borderopacity="0.25"
     inkscape:showpageshadow="2"
     inkscape:pageopacity="0.0"
     inkscape:pagecheckerboard="0"
     inkscape:deskcolor="#d1d1d1"
     showgrid="false"
     inkscape:zoom="0.34604106"
     inkscape:cx="595.30508"
     inkscape:cy="342.44492"
     inkscape:window-width="2752"
     inkscape:window-height="1124"
     inkscape:window-x="0"
     inkscape:window-y="0"
     inkscape:window-maximized="1"
     inkscape:current-layer="svg248" />
  <defs
     id="defs2" />
  <g
     id="g246">
    <!--cluster user_env_a-->
    <g
       id="cluster_user_env_a">
      <rect
         fill="none"
         height="214"
         rx="2.5"
         ry="2.5"
         style="stroke:#181818;stroke-width:1.0;"
         width="320"
         x="7"
         y="7"
         id="rect4" />
      <text
         fill="#000000"
         font-family="sans-serif"
         font-size="14"
         font-weight="bold"
         lengthAdjust="spacing"
         textLength="164"
         x="85"
         y="22.1318"
         id="text6">Account Environment A</text>
    </g>
    <!--cluster user_env_b-->
    <g
       id="cluster_user_env_b">
      <rect
         fill="none"
         height="214"
         rx="2.5"
         ry="2.5"
         style="stroke:#181818;stroke-width:1.0;"
         width="320"
         x="866"
         y="7"
         id="rect9" />
      <text
         fill="#000000"
         font-family="sans-serif"
         font-size="14"
         font-weight="bold"
         lengthAdjust="spacing"
         textLength="165"
         x="943.5"
         y="22.1318"
         id="text11">Account Environment B</text>
    </g>
    <!--cluster AWS-->
    <g
       id="cluster_AWS">
      <path
         d="M191.945,272.1783 C203.51,245.8553 224.4916,246.7483 240.8115,267.212 C251.3742,247.7114 264.5064,249.2147 277.7352,264.3715 C291.6812,244.3443 308.2483,248.586 319.8655,266.9286 C333.0589,247.1219 348.0615,245.9152 362.9142,265.0965 C369.8464,240.9187 390.4418,240.7792 404.053,258.5458 C416.7492,235.2572 429.7006,237.5711 446.0439,254.7626 C461.8335,231.9916 475.4742,233.2178 489.7055,256.2481 C505.4367,238.1632 525.4466,236.4998 536.8868,261.0019 C544.7667,240.8745 562.149,241.7196 573.9936,256.8267 C591.9054,233.4906 607.6468,239.768 621.4331,261.1985 C636.9832,244.0369 655.043,246.9458 665.271,267.4007 C676.5272,248.671 693.261,246.9348 703.8055,268.0884 C714.879,244.4702 734.8326,244.8902 749.6547,264.0729 C763.9122,248.5262 785.9749,248.0006 793,272 C796.122,272.2596 797.167,274.7133 795.4177,277.2263 C819.5584,288.7901 816.93,307.894 799.1873,322.9136 C819.1579,333.9783 817.799,353.1456 799.2994,364.3144 C820.8149,373.137 823.5726,391.4701 806.4969,406.8265 C833.4495,418.1934 834.0562,438.0329 811.3934,454.4962 C830.084,471.5612 827.2152,489.6934 804.003,499.9445 C825.7925,514.5048 824.1201,531.3262 801.6567,543.5028 C826.2701,556.4018 823.0454,578.9215 802.1933,592.3202 C821.5713,614.0531 812.9245,632.0486 786,637 C787.0373,636.995 787.4793,637.3616 787.1129,638.4408 C776.7626,657.8777 756.6315,657.8887 745.133,639.7227 C735.9585,658.3077 723.8135,661.8921 708.4526,646.3773 C696.9792,665.9714 679.5572,671.0457 664.5309,650.2399 C650.4753,670.7634 630.309,665.9504 620.554,645.6115 C610.4754,672.4621 589.4575,668.7634 574.0884,651.1386 C566.3208,670.6439 548.5307,671.3174 537.5173,654.3974 C520.5122,675.3107 503.8618,674.9968 488.9877,652.0401 C478.9836,671.2581 464.3468,669.7575 451.3431,655.4037 C434.1871,675.6112 416.7055,671.0511 408.8995,646.5312 C398.7013,665.4167 377.4762,672.3864 364.9012,649.0053 C350.2529,668.4478 336.7814,667.2757 324.0498,647.0324 C308.5617,670.5819 289.592,666.8431 278.3883,642.9121 C268.4456,665.2478 252.6817,664.3563 238.9805,646.6071 C213.2688,669.3139 194.5951,657.3391 184,630 C186.2361,629.9174 186.6705,631.3944 185.8579,633.1246 C162.2568,623.2729 162.6234,600.6932 182.7004,587.7988 C156.7363,577.3178 158.1601,556.3043 178.9527,541.9975 C156.7454,528.0002 162.8106,511.682 180.9895,499.626 C156.1734,490.755 151.1942,471.1309 173.754,454.6399 C156.8898,436.112 162.1562,422.8658 182.4787,411.9353 C158.0722,396.7492 157.6627,381.4391 179.0484,363.0404 C160.0963,349.4938 166.8248,330.49 186.094,323.8073 C162.417,303.3871 163.7301,281.17 191,265 C194.6165,266.6354 194.7626,269.6959 191.945,272.1783 "
         fill="none"
         style="stroke:#181818;stroke-width:1.0;"
         id="path14" />
      <text
         fill="#000000"
         font-family="sans-serif"
         font-size="14"
         font-weight="bold"
         lengthAdjust="spacing"
         textLength="31"
         x="473"
         y="283.1318"
         id="text16">AWS</text>
    </g>
    <!--cluster user_deployment_a-->
    <g
       id="cluster_user_deployment_a">
      <rect
         fill="none"
         height="321"
         rx="2.5"
         ry="2.5"
         style="stroke:#181818;stroke-width:1.0;"
         width="270"
         x="200"
         y="300"
         id="rect19" />
      <text
         fill="#000000"
         font-family="sans-serif"
         font-size="14"
         font-weight="bold"
         lengthAdjust="spacing"
         textLength="190"
         x="208"
         y="315.1318"
         id="text21">Account A BHE Deployment</text>
    </g>
    <!--cluster user_deployment_b-->
    <g
       id="cluster_user_deployment_b">
      <rect
         fill="none"
         height="321"
         rx="2.5"
         ry="2.5"
         style="stroke:#181818;stroke-width:1.0;"
         width="283"
         x="494"
         y="300"
         id="rect24" />
      <text
         fill="#000000"
         font-family="sans-serif"
         font-size="14"
         font-weight="bold"
         lengthAdjust="spacing"
         textLength="191"
         x="578"
         y="315.1318"
         id="text26">Account B BHE Deployment</text>
    </g>
    <!--entity domain_assets_a-->
    <g
       id="elem_domain_assets_a">
      <rect
         fill="#F1F1F1"
         height="32.0986"
         rx="2.5"
         ry="2.5"
         style="stroke:#181818;stroke-width:0.5;"
         width="110"
         x="55"
         y="173"
         id="rect29" />
      <rect
         fill="#F1F1F1"
         height="32.0986"
         rx="2.5"
         ry="2.5"
         style="stroke:#181818;stroke-width:0.5;"
         width="110"
         x="51"
         y="169"
         id="rect31" />
      <text
         fill="#000000"
         font-family="sans-serif"
         font-size="14"
         lengthAdjust="spacing"
         textLength="94"
         x="59"
         y="190.1318"
         id="text33">Domain Assets</text>
    </g>
    <!--entity sh_collector_a-->
    <g
       id="elem_sh_collector_a">
      <polygon
         fill="#F1F1F1"
         points="81.5,52,91.5,42,200.5,42,200.5,78.0986,190.5,88.0986,81.5,88.0986,81.5,52"
         style="stroke:#181818;stroke-width:0.5;"
         id="polygon36" />
      <line
         style="stroke:#181818;stroke-width:0.5;"
         x1="190.5"
         x2="200.5"
         y1="52"
         y2="42"
         id="line38" />
      <line
         style="stroke:#181818;stroke-width:0.5;"
         x1="81.5"
         x2="190.5"
         y1="52"
         y2="52"
         id="line40" />
      <line
         style="stroke:#181818;stroke-width:0.5;"
         x1="190.5"
         x2="190.5"
         y1="52"
         y2="88.0986"
         id="line42" />
      <text
         fill="#000000"
         font-family="sans-serif"
         font-size="14"
         lengthAdjust="spacing"
         textLength="79"
         x="96.5"
         y="75.1318"
         id="text44">SharpHound</text>
    </g>
    <!--entity domain_assets_b-->
    <g
       id="elem_domain_assets_b">
      <rect
         fill="#F1F1F1"
         height="32.0986"
         rx="2.5"
         ry="2.5"
         style="stroke:#181818;stroke-width:0.5;"
         width="110"
         x="914"
         y="173"
         id="rect47" />
      <rect
         fill="#F1F1F1"
         height="32.0986"
         rx="2.5"
         ry="2.5"
         style="stroke:#181818;stroke-width:0.5;"
         width="110"
         x="910"
         y="169"
         id="rect49" />
      <text
         fill="#000000"
         font-family="sans-serif"
         font-size="14"
         lengthAdjust="spacing"
         textLength="94"
         x="918"
         y="190.1318"
         id="text51">Domain Assets</text>
    </g>
    <!--entity sh_collector_b-->
    <g
       id="elem_sh_collector_b">
      <polygon
         fill="#F1F1F1"
         points="894.5,52,904.5,42,1013.5,42,1013.5,78.0986,1003.5,88.0986,894.5,88.0986,894.5,52"
         style="stroke:#181818;stroke-width:0.5;"
         id="polygon54" />
      <line
         style="stroke:#181818;stroke-width:0.5;"
         x1="1003.5"
         x2="1013.5"
         y1="52"
         y2="42"
         id="line56" />
      <line
         style="stroke:#181818;stroke-width:0.5;"
         x1="894.5"
         x2="1003.5"
         y1="52"
         y2="52"
         id="line58" />
      <line
         style="stroke:#181818;stroke-width:0.5;"
         x1="1003.5"
         x2="1003.5"
         y1="52"
         y2="88.0986"
         id="line60" />
      <text
         fill="#000000"
         font-family="sans-serif"
         font-size="14"
         lengthAdjust="spacing"
         textLength="79"
         x="909.5"
         y="75.1318"
         id="text62">SharpHound</text>
    </g>
    <!--entity bhe_lb_a-->
    <g
       id="elem_bhe_lb_a">
      <path
         d="M326,335 L428,335 C433,335 433,348.0493 433,348.0493 C433,348.0493 433,361.0986 428,361.0986 L326,361.0986 C321,361.0986 321,348.0493 321,348.0493 C321,348.0493 321,335 326,335 "
         fill="#F1F1F1"
         style="stroke:#181818;stroke-width:0.5;"
         id="path65" />
      <path
         d="M428,335 C423,335 423,348.0493 423,348.0493 C423,361.0986 428,361.0986 428,361.0986 "
         fill="none"
         style="stroke:#181818;stroke-width:0.5;"
         id="path67" />
      <text
         fill="#000000"
         font-family="sans-serif"
         font-size="14"
         lengthAdjust="spacing"
         textLength="92"
         x="326"
         y="353.1318"
         id="text69">Load Balancer</text>
    </g>
    <!--entity bhe_api_a-->
    <g
       id="elem_bhe_api_a">
      <polygon
         fill="#F1F1F1"
         points="264,447,274,437,450,437,450,489.1973,440,499.1973,264,499.1973,264,447"
         style="stroke:#181818;stroke-width:0.5;"
         id="polygon72" />
      <line
         style="stroke:#181818;stroke-width:0.5;"
         x1="440"
         x2="450"
         y1="447"
         y2="437"
         id="line74" />
      <line
         style="stroke:#181818;stroke-width:0.5;"
         x1="264"
         x2="440"
         y1="447"
         y2="447"
         id="line76" />
      <line
         style="stroke:#181818;stroke-width:0.5;"
         x1="440"
         x2="440"
         y1="447"
         y2="499.1973"
         id="line78" />
      <text
         fill="#000000"
         font-family="sans-serif"
         font-size="14"
         lengthAdjust="spacing"
         textLength="146"
         x="279"
         y="470.1318"
         id="text80">BloodHound Enterprise</text>
      <text
         fill="#000000"
         font-family="sans-serif"
         font-size="14"
         lengthAdjust="spacing"
         textLength="21"
         x="279"
         y="486.2305"
         id="text82">API</text>
    </g>
    <!--entity bhe_rds_a-->
    <g
       id="elem_bhe_rds_a">
      <path
         d="M251,570 C251,560 293,560 293,560 C293,560 335,560 335,570 L335,595.0986 C335,605.0986 293,605.0986 293,605.0986 C293,605.0986 251,605.0986 251,595.0986 L251,570 "
         fill="#F1F1F1"
         style="stroke:#181818;stroke-width:0.5;"
         id="path85" />
      <path
         d="M251,570 C251,580 293,580 293,580 C293,580 335,580 335,570 "
         fill="none"
         style="stroke:#181818;stroke-width:0.5;"
         id="path87" />
      <text
         fill="#000000"
         font-family="sans-serif"
         font-size="14"
         lengthAdjust="spacing"
         textLength="64"
         x="261"
         y="597.1318"
         id="text89">AWS RDS</text>
    </g>
    <!--entity bhe_neo4j_a-->
    <g
       id="elem_bhe_neo4j_a">
      <path
         d="M370.5,570 C370.5,560 412,560 412,560 C412,560 453.5,560 453.5,570 L453.5,595.0986 C453.5,605.0986 412,605.0986 412,605.0986 C412,605.0986 370.5,605.0986 370.5,595.0986 L370.5,570 "
         fill="#F1F1F1"
         style="stroke:#181818;stroke-width:0.5;"
         id="path92" />
      <path
         d="M370.5,570 C370.5,580 412,580 412,580 C412,580 453.5,580 453.5,570 "
         fill="none"
         style="stroke:#181818;stroke-width:0.5;"
         id="path94" />
      <text
         fill="#000000"
         font-family="sans-serif"
         font-size="14"
         lengthAdjust="spacing"
         textLength="63"
         x="380.5"
         y="597.1318"
         id="text96">Graph DB</text>
    </g>
    <!--entity bhe_lb_b-->
    <g
       id="elem_bhe_lb_b">
      <path
         d="M533,335 L635,335 C640,335 640,348.0493 640,348.0493 C640,348.0493 640,361.0986 635,361.0986 L533,361.0986 C528,361.0986 528,348.0493 528,348.0493 C528,348.0493 528,335 533,335 "
         fill="#F1F1F1"
         style="stroke:#181818;stroke-width:0.5;"
         id="path99" />
      <path
         d="M635,335 C630,335 630,348.0493 630,348.0493 C630,361.0986 635,361.0986 635,361.0986 "
         fill="none"
         style="stroke:#181818;stroke-width:0.5;"
         id="path101" />
      <text
         fill="#000000"
         font-family="sans-serif"
         font-size="14"
         lengthAdjust="spacing"
         textLength="92"
         x="533"
         y="353.1318"
         id="text103">Load Balancer</text>
    </g>
    <!--entity bhe_api_b-->
    <g
       id="elem_bhe_api_b">
      <polygon
         fill="#F1F1F1"
         points="510,447,520,437,696,437,696,489.1973,686,499.1973,510,499.1973,510,447"
         style="stroke:#181818;stroke-width:0.5;"
         id="polygon106" />
      <line
         style="stroke:#181818;stroke-width:0.5;"
         x1="686"
         x2="696"
         y1="447"
         y2="437"
         id="line108" />
      <line
         style="stroke:#181818;stroke-width:0.5;"
         x1="510"
         x2="686"
         y1="447"
         y2="447"
         id="line110" />
      <line
         style="stroke:#181818;stroke-width:0.5;"
         x1="686"
         x2="686"
         y1="447"
         y2="499.1973"
         id="line112" />
      <text
         fill="#000000"
         font-family="sans-serif"
         font-size="14"
         lengthAdjust="spacing"
         textLength="146"
         x="525"
         y="470.1318"
         id="text114">BloodHound Enterprise</text>
      <text
         fill="#000000"
         font-family="sans-serif"
         font-size="14"
         lengthAdjust="spacing"
         textLength="21"
         x="525"
         y="486.2305"
         id="text116">API</text>
    </g>
    <!--entity bhe_rds_b-->
    <g
       id="elem_bhe_rds_b">
      <path
         d="M510,570 C510,560 552,560 552,560 C552,560 594,560 594,570 L594,595.0986 C594,605.0986 552,605.0986 552,605.0986 C552,605.0986 510,605.0986 510,595.0986 L510,570 "
         fill="#F1F1F1"
         style="stroke:#181818;stroke-width:0.5;"
         id="path119" />
      <path
         d="M510,570 C510,580 552,580 552,580 C552,580 594,580 594,570 "
         fill="none"
         style="stroke:#181818;stroke-width:0.5;"
         id="path121" />
      <text
         fill="#000000"
         font-family="sans-serif"
         font-size="14"
         lengthAdjust="spacing"
         textLength="64"
         x="520"
         y="597.1318"
         id="text123">AWS RDS</text>
    </g>
    <!--entity bhe_neo4j_b-->
    <g
       id="elem_bhe_neo4j_b">
      <path
         d="M629.5,570 C629.5,560 671,560 671,560 C671,560 712.5,560 712.5,570 L712.5,595.0986 C712.5,605.0986 671,605.0986 671,605.0986 C671,605.0986 629.5,605.0986 629.5,595.0986 L629.5,570 "
         fill="#F1F1F1"
         style="stroke:#181818;stroke-width:0.5;"
         id="path126" />
      <path
         d="M629.5,570 C629.5,580 671,580 671,580 C671,580 712.5,580 712.5,570 "
         fill="none"
         style="stroke:#181818;stroke-width:0.5;"
         id="path128" />
      <text
         fill="#000000"
         font-family="sans-serif"
         font-size="14"
         lengthAdjust="spacing"
         textLength="63"
         x="639.5"
         y="597.1318"
         id="text130">Graph DB</text>
    </g>
    <!--entity internet-->
    <g
       id="elem_internet">
      <path
         d="M460.0688,172.2794 C464.4965,165.6615 469.3843,165.0329 474.1663,171.9092 C477.3464,165.1798 481.9092,165.0651 486.8013,170.0649 C491.6417,163.9755 497.9803,163.1899 502.2318,170.7315 C505.9206,163.768 512.4464,165.6118 515.5309,171.3635 C520.9121,164.9702 527.4605,165.7025 531.5501,172.8873 C534.983,165.7668 541.2319,166.7252 544.7612,172.7907 C555.3789,173.563 557.128,179.2295 553.8781,188.2042 C558.1306,197.0921 556.8413,203.0858 545.7556,204.1711 C540.4756,210.7372 535.7599,212.2165 530.7248,203.9234 C528.1374,211.3847 521.0939,211.8563 516.2776,206.4201 C511.6901,213.4598 506.1008,213.6206 501.6517,206.2793 C497.8598,212.7378 491.7866,213.8952 487.6358,206.6464 C480.8831,213.1557 476.4267,210.794 472.4551,203.5718 C468.3877,209.6371 461.95,210.3584 458.0079,203.4325 C449.2787,200.6274 448.6025,195.5369 453.33,188.5127 C447.903,181.4273 451.2096,173.4342 460.0688,172.2794 "
         fill="#F1F1F1"
         style="stroke:#181818;stroke-width:0.5;"
         id="path133" />
      <text
         fill="#000000"
         font-family="sans-serif"
         font-size="14"
         lengthAdjust="spacing"
         textLength="48"
         x="477"
         y="192.1318"
         id="text135">Internet</text>
    </g>
    <!--link sh_collector_a to domain_assets_a-->
    <g
       id="link_sh_collector_a_domain_assets_a">
      <path
         d="M82.64,91.77 C72.75,98.81 63.82,107.48 58,118 C48.8,134.61 61.73,151.83 76.74,164.79 "
         fill="none"
         id="sh_collector_a-domain_assets_a"
         style="stroke:#181818;stroke-width:1.0;" />
      <polygon
         fill="#181818"
         points="86.63,89.08,76.9335,90.8056,82.4874,91.8798,81.4132,97.4337,86.63,89.08"
         style="stroke:#181818;stroke-width:1.0;"
         id="polygon139" />
      <polygon
         fill="#181818"
         points="80.27,167.7,75.878,158.8846,76.4149,164.516,70.7836,165.0528,80.27,167.7"
         style="stroke:#181818;stroke-width:1.0;"
         id="polygon141" />
      <text
         fill="#000000"
         font-family="sans-serif"
         font-size="13"
         lengthAdjust="spacing"
         textLength="8"
         x="59"
         y="131.1938"
         id="text143">  </text>
    </g>
    <!--link sh_collector_a to domain_assets_a-->
    <g
       id="g153">
      <path
         d="M117.45,93.48 C112.35,100.97 107.69,109.4 105,118 C100.55,132.25 101.22,148.99 103.04,162.3 "
         fill="none"
         id="sh_collector_a-domain_assets_a-1"
         style="stroke:#181818;stroke-width:1.0;" />
      <polygon
         fill="#181818"
         points="120.15,89.7,111.6706,94.7099,117.2492,93.7725,118.1866,99.3512,120.15,89.7"
         style="stroke:#181818;stroke-width:1.0;"
         id="polygon147" />
      <polygon
         fill="#181818"
         points="103.78,167.04,106.3443,157.5308,103.009,162.0998,98.44,158.7645,103.78,167.04"
         style="stroke:#181818;stroke-width:1.0;"
         id="polygon149" />
      <text
         fill="#000000"
         font-family="sans-serif"
         font-size="13"
         lengthAdjust="spacing"
         textLength="24"
         x="106"
         y="131.1938"
         id="text151">      </text>
    </g>
    <!--link sh_collector_a to domain_assets_a-->
    <g
       id="g162">
      <path
         d="M140.94,94.68 C140.29,106.99 138.67,121.4 135,134 C132.06,144.09 127.09,154.51 122.21,163.35 "
         fill="none"
         id="sh_collector_a-domain_assets_a-2"
         style="stroke:#181818;stroke-width:1.0;" />
      <polygon
         fill="#181818"
         points="141.14,89.97,136.7835,98.8029,140.9402,94.966,144.7771,99.1227,141.14,89.97"
         style="stroke:#181818;stroke-width:1.0;"
         id="polygon156" />
      <polygon
         fill="#181818"
         points="119.79,167.6,127.7179,161.7563,122.263,163.2544,120.7649,157.7995,119.79,167.6"
         style="stroke:#181818;stroke-width:1.0;"
         id="polygon158" />
      <text
         fill="#000000"
         font-family="sans-serif"
         font-size="13"
         lengthAdjust="spacing"
         textLength="95"
         x="156"
         y="131.1938"
         id="text160">AD Enumeration</text>
    </g>
    <!--link sh_collector_a to internet-->
    <g
       id="link_sh_collector_a_internet">
      <path
         d="M200.85,85.95 C268.39,108.46 377.46,144.82 443.87,166.96 "
         fill="none"
         id="sh_collector_a-to-internet"
         style="stroke:#181818;stroke-width:1.0;" />
      <polygon
         fill="#181818"
         points="448.32,168.44,441.0348,161.8124,443.5737,166.8674,438.5187,169.4064,448.32,168.44"
         style="stroke:#181818;stroke-width:1.0;"
         id="polygon165" />
      <text
         fill="#000000"
         font-family="sans-serif"
         font-size="13"
         lengthAdjust="spacing"
         textLength="215"
         x="344"
         y="131.1938"
         id="text167">Transmit Collection Data via TLS v1.2</text>
    </g>
    <!--link internet to bhe_lb_a-->
    <g
       id="link_internet_bhe_lb_a">
      <path
         d="M483.5,210.44 C458.48,242.52 413.05,300.78 390.47,329.72 "
         fill="none"
         id="internet-to-bhe_lb_a"
         style="stroke:#181818;stroke-width:1.0;" />
      <polygon
         fill="#181818"
         points="387.47,333.58,396.1564,328.9381,390.5427,329.6355,389.8452,324.0219,387.47,333.58"
         style="stroke:#181818;stroke-width:1.0;"
         id="polygon171" />
    </g>
    <!--link sh_collector_b to domain_assets_b-->
    <g
       id="link_sh_collector_b_domain_assets_b">
      <path
         d="M926.5,93.37 C917.66,105.51 911.42,120.15 917,134 C921.7,145.68 930.43,156.21 939.28,164.69 "
         fill="none"
         id="sh_collector_b-domain_assets_b"
         style="stroke:#181818;stroke-width:1.0;" />
      <polygon
         fill="#181818"
         points="929.5,89.53,920.8136,94.1719,926.4273,93.4745,927.1248,99.0881,929.5,89.53"
         style="stroke:#181818;stroke-width:1.0;"
         id="polygon175" />
      <polygon
         fill="#181818"
         points="942.51,167.65,938.588,158.6157,938.8278,164.2675,933.176,164.5073,942.51,167.65"
         style="stroke:#181818;stroke-width:1.0;"
         id="polygon177" />
      <text
         fill="#000000"
         font-family="sans-serif"
         font-size="13"
         lengthAdjust="spacing"
         textLength="8"
         x="918"
         y="131.1938"
         id="text179">  </text>
    </g>
    <!--link sh_collector_b to domain_assets_b-->
    <g
       id="g189">
      <path
         d="M957.09,94.53 C959.33,115.18 962.32,142.78 964.43,162.24 "
         fill="none"
         id="sh_collector_b-domain_assets_b-1"
         style="stroke:#181818;stroke-width:1.0;" />
      <polygon
         fill="#181818"
         points="956.58,89.79,953.554,99.1625,957.1086,94.762,961.5091,98.3167,956.58,89.79"
         style="stroke:#181818;stroke-width:1.0;"
         id="polygon183" />
      <polygon
         fill="#181818"
         points="964.94,167,967.9394,157.619,964.3972,162.0295,959.9867,158.4874,964.94,167"
         style="stroke:#181818;stroke-width:1.0;"
         id="polygon185" />
      <text
         fill="#000000"
         font-family="sans-serif"
         font-size="13"
         lengthAdjust="spacing"
         textLength="24"
         x="962"
         y="131.1938"
         id="text187">      </text>
    </g>
    <!--link sh_collector_b to domain_assets_b-->
    <g
       id="g198">
      <path
         d="M980.3,93.36 C985.9,100.8 991.02,109.24 994,118 C999.19,133.26 992.6,150.09 984.64,163.2 "
         fill="none"
         id="sh_collector_b-domain_assets_b-2"
         style="stroke:#181818;stroke-width:1.0;" />
      <polygon
         fill="#181818"
         points="977.31,89.57,979.745,99.1131,980.4073,93.4951,986.0252,94.1574,977.31,89.57"
         style="stroke:#181818;stroke-width:1.0;"
         id="polygon192" />
      <polygon
         fill="#181818"
         points="981.99,167.3,990.2345,161.9122,984.7039,163.1006,983.5155,157.57,981.99,167.3"
         style="stroke:#181818;stroke-width:1.0;"
         id="polygon194" />
      <text
         fill="#000000"
         font-family="sans-serif"
         font-size="13"
         lengthAdjust="spacing"
         textLength="95"
         x="1012"
         y="131.1938"
         id="text196">AD Enumeration</text>
    </g>
    <!--link sh_collector_b to internet-->
    <g
       id="link_sh_collector_b_internet">
      <path
         d="M894.02,70.43 C829.32,76.45 723.88,89.87 637,118 C604.29,128.59 569.66,146 543.54,160.56 "
         fill="none"
         id="sh_collector_b-to-internet"
         style="stroke:#181818;stroke-width:1.0;" />
      <polygon
         fill="#181818"
         points="539.41,162.88,549.2142,161.9433,543.7652,160.4239,545.2845,154.9749,539.41,162.88"
         style="stroke:#181818;stroke-width:1.0;"
         id="polygon201" />
      <text
         fill="#000000"
         font-family="sans-serif"
         font-size="13"
         lengthAdjust="spacing"
         textLength="215"
         x="638"
         y="131.1938"
         id="text203">Transmit Collection Data via TLS v1.2</text>
    </g>
    <!--link internet to bhe_lb_b-->
    <g
       id="link_internet_bhe_lb_b">
      <path
         d="M512.72,210.44 C529.39,242.38 559.62,300.29 574.79,329.36 "
         fill="none"
         id="internet-to-bhe_lb_b"
         style="stroke:#181818;stroke-width:1.0;" />
      <polygon
         fill="#181818"
         points="576.92,333.43,576.2967,323.6009,574.6042,328.9986,569.2065,327.3061,576.92,333.43"
         style="stroke:#181818;stroke-width:1.0;"
         id="polygon207" />
    </g>
    <!--link bhe_lb_a to bhe_api_a-->
    <g
       id="link_bhe_lb_a_bhe_api_a">
      <path
         d="M374.93,361.18 C372.19,377.4 367.21,406.78 363.19,430.48 "
         fill="none"
         id="bhe_lb_a-to-bhe_api_a"
         style="stroke:#181818;stroke-width:1.0;" />
      <polygon
         fill="#181818"
         points="362.39,435.19,367.8267,426.9777,363.2189,430.2592,359.9375,425.6514,362.39,435.19"
         style="stroke:#181818;stroke-width:1.0;"
         id="polygon211" />
      <text
         fill="#000000"
         font-family="sans-serif"
         font-size="13"
         lengthAdjust="spacing"
         textLength="79"
         x="379"
         y="404.1938"
         id="text213">Routed Traffic</text>
    </g>
    <!--link bhe_api_a to bhe_rds_a-->
    <g
       id="link_bhe_api_a_bhe_rds_a">
      <path
         d="M336.57,504.91 C327.46,520.92 316.91,539.47 308.47,554.31 "
         fill="none"
         id="bhe_api_a-bhe_rds_a"
         style="stroke:#181818;stroke-width:1.0;" />
      <polygon
         fill="#181818"
         points="338.93,500.76,331.0021,506.6037,336.457,505.1056,337.9551,510.5605,338.93,500.76"
         style="stroke:#181818;stroke-width:1.0;"
         id="polygon217" />
      <polygon
         fill="#181818"
         points="306.21,558.28,314.1379,552.4363,308.683,553.9344,307.1849,548.4795,306.21,558.28"
         style="stroke:#181818;stroke-width:1.0;"
         id="polygon219" />
    </g>
    <!--link bhe_api_a to bhe_neo4j_a-->
    <g
       id="link_bhe_api_a_bhe_neo4j_a">
      <path
         d="M374.56,504.91 C382.32,520.78 391.29,539.15 398.52,553.92 "
         fill="none"
         id="bhe_api_a-bhe_neo4j_a"
         style="stroke:#181818;stroke-width:1.0;" />
      <polygon
         fill="#181818"
         points="372.55,500.8,372.8841,510.6432,374.7345,505.2975,380.0802,507.148,372.55,500.8"
         style="stroke:#181818;stroke-width:1.0;"
         id="polygon223" />
      <polygon
         fill="#181818"
         points="400.63,558.23,400.2583,548.3882,398.4283,553.7408,393.0756,551.9109,400.63,558.23"
         style="stroke:#181818;stroke-width:1.0;"
         id="polygon225" />
    </g>
    <!--link bhe_lb_b to bhe_api_b-->
    <g
       id="link_bhe_lb_b_bhe_api_b">
      <path
         d="M585.96,361.18 C588.57,377.4 593.3,406.78 597.12,430.48 "
         fill="none"
         id="bhe_lb_b-to-bhe_api_b"
         style="stroke:#181818;stroke-width:1.0;" />
      <polygon
         fill="#181818"
         points="597.88,435.19,600.3863,425.6654,597.0789,430.2546,592.4897,426.9472,597.88,435.19"
         style="stroke:#181818;stroke-width:1.0;"
         id="polygon229" />
      <text
         fill="#000000"
         font-family="sans-serif"
         font-size="13"
         lengthAdjust="spacing"
         textLength="79"
         x="601"
         y="404.1938"
         id="text231">Routed Traffic</text>
    </g>
    <!--link bhe_api_b to bhe_rds_b-->
    <g
       id="link_bhe_api_b_bhe_rds_b">
      <path
         d="M586.51,505.38 C579.36,521.16 571.11,539.33 564.48,553.97 "
         fill="none"
         id="bhe_api_b-bhe_rds_b"
         style="stroke:#181818;stroke-width:1.0;" />
      <polygon
         fill="#181818"
         points="588.57,500.82,581.1966,507.3494,586.4956,505.3694,588.4756,510.6684,588.57,500.82"
         style="stroke:#181818;stroke-width:1.0;"
         id="polygon235" />
      <polygon
         fill="#181818"
         points="562.56,558.22,569.9164,551.6714,564.6225,553.6652,562.6288,548.3714,562.56,558.22"
         style="stroke:#181818;stroke-width:1.0;"
         id="polygon237" />
    </g>
    <!--link bhe_api_b to bhe_neo4j_b-->
    <g
       id="link_bhe_api_b_bhe_neo4j_b">
      <path
         d="M624.71,504.91 C634.38,520.92 645.6,539.47 654.56,554.31 "
         fill="none"
         id="bhe_api_b-bhe_neo4j_b"
         style="stroke:#181818;stroke-width:1.0;" />
      <polygon
         fill="#181818"
         points="622.18,500.74,623.4044,510.5125,624.763,505.0212,630.2543,506.3797,622.18,500.74"
         style="stroke:#181818;stroke-width:1.0;"
         id="polygon241" />
      <polygon
         fill="#181818"
         points="656.98,558.3,655.7556,548.5275,654.397,554.0188,648.9057,552.6603,656.98,558.3"
         style="stroke:#181818;stroke-width:1.0;"
         id="polygon243" />
    </g>
    <!--SRC=[dPFHI-Gm4CRV-rSCULTGxab4QAsSWW-7AzpBGPbfHZVIJNf9ko1o__ibsRQoDRjM-zGctvVvVjECvRf3_Tmmz8vjnNfR8Q03aTUrwNK7DtghhD4Rzk-vWBSCe3PDustAQ0VIR53f2ftZpWtMCgv17jU4DsWZ6Tow6ep63iBL6crxwyj8aVtBClin2ntCKdoMXPPceLIMkZ6z1AKxjfgxg020k_4RG8oQ_FSg9fcbbzmsvZL4dJKqX-Bs1iff6sRFZWlWRyyz0wsvQcWuujwWX08Rr3LR4LKH9uYmLOEgQ8oHaSGtpETjhNByH-U_xdOMYHqIkftDol6l1Ow7SfNGQ3O_NWRLJulj6ieYo7oRZc7JsBNvCtQYc7L29C1f4JXz3vmMWLC2tAFFxlFboSdLXscu2FnYkJJ-_w_8yzAZzXks64RWm071FzraRtoqgDr6TN0z3G-KdXks2k7nVWNRizDpaKsMu1_luOoRKkaeoNrCceXzNBw0cxx7lJ-BoIPGbarZEIxlnY-cUp1znn9yjQSdLOT3tWMNepxENMfZ6BQf1EsLe5I9zmAqNu1I6yEbplu3]-->
  </g>
</svg>
